<svg xmlns="http://www.w3.org/2000/svg" enable-background="new 0 0 24 24" viewBox="0 0 24 24" id="calendar-alt"><path fill="#6563FF" d="M19,2.9h-1v-1c0-0.6-0.4-1-1-1s-1,0.4-1,1v1H8v-1c0-0.6-0.4-1-1-1s-1,0.4-1,1v1H5c-1.7,0-3,1.3-3,3v14c0,1.7,1.3,3,3,3h14c1.7,0,3-1.3,3-3v-14C22,4.3,20.7,2.9,19,2.9z M7,18.9c-0.6,0-1-0.4-1-1c0-0.6,0.4-1,1-1s1,0.4,1,1C8,18.5,7.6,18.9,7,18.9z M7,14.9c-0.6,0-1-0.4-1-1c0-0.6,0.4-1,1-1s1,0.4,1,1C8,14.5,7.6,14.9,7,14.9z M12,18.9c-0.6,0-1-0.4-1-1c0-0.6,0.4-1,1-1s1,0.4,1,1C13,18.5,12.6,18.9,12,18.9z M12,14.9c-0.6,0-1-0.4-1-1c0-0.6,0.4-1,1-1s1,0.4,1,1C13,14.5,12.6,14.9,12,14.9z M17,18.9c-0.6,0-1-0.4-1-1c0-0.6,0.4-1,1-1s1,0.4,1,1C18,18.5,17.6,18.9,17,18.9z M17,14.9c-0.6,0-1-0.4-1-1c0-0.6,0.4-1,1-1s1,0.4,1,1C18,14.5,17.6,14.9,17,14.9z M20,8.9H4v-3c0-0.6,0.4-1,1-1h1v1c0,0.6,0.4,1,1,1s1-0.4,1-1v-1h8v1c0,0.6,0.4,1,1,1s1-0.4,1-1v-1h1c0.6,0,1,0.4,1,1V8.9z"></path></svg>